<svg width="162" height="172" viewBox="0 0 162 172" fill="none" xmlns="http://www.w3.org/2000/svg">
<path d="M44.9834 93.3029H10.2478V171.951H44.9834V93.3029Z" fill="#01D200"/>
<path d="M10.2484 93.3029H3.05176e-05V171.951H10.2484V93.3029Z" fill="#01D200"/>
<path d="M103.367 67.0858H68.631V171.952H103.367V67.0858Z" fill="#01D200"/>
<path d="M68.6309 67.0859H58.382V171.952H68.6309V67.0859Z" fill="#01D200"/>
<path d="M161.749 42.3522H127.013V171.952H161.749V42.3522Z" fill="#01D200"/>
<path d="M127.013 42.3521H116.764V171.951H127.013V42.3521Z" fill="#01D200"/>
<path d="M114.966 0L124.267 9.30123L105.534 28.0341L91.7076 14.2069L48.4984 57.4156L35.8982 44.8154L1.04826 79.6649L6.14977 84.7659L35.8982 55.0179L48.4984 67.6181L91.7076 24.4094L105.534 38.2366L129.369 14.4027L138.67 23.7045V0H114.966Z" fill="#044C48"/>
</svg>
