<svg width="50" height="51" viewBox="0 0 50 51" fill="none" xmlns="http://www.w3.org/2000/svg">
<path d="M45.7155 43.7914C48.3805 40.7933 49.8795 36.6848 49.6019 32.2432C49.2133 26.8022 45.9376 22.083 41.3294 19.6401C41.3294 20.0843 41.3294 20.5284 41.3294 21.0281C40.8852 31.5214 32.2796 40.4047 21.7308 41.2375C21.3421 41.2375 20.9535 41.293 20.5649 41.293C23.1188 45.568 27.6159 48.5661 32.7793 48.9548C34.9446 49.0658 37.0544 48.8437 39.0531 48.1775C40.0524 47.8444 43.9944 49.732 46.2152 50.898C46.7704 51.1756 47.4366 50.6204 47.159 50.0096C46.3262 47.8999 45.2158 44.4021 45.7155 43.7914Z" fill="white" fill-opacity="0.81"/>
<path d="M39.2196 20.917C38.7755 30.4664 31.0582 38.4058 21.5642 39.1276C18.8992 39.2942 16.2898 38.961 13.8469 38.1837C12.5699 37.7396 7.7952 40.1269 5.01919 41.5705C4.35295 41.9036 3.52015 41.2374 3.85327 40.4601C4.85263 37.7951 6.29616 33.4645 5.62991 32.7428C2.35422 29.0229 0.522057 24.0261 0.855178 18.5296C1.52142 8.98014 9.51633 1.20732 19.0658 0.818676C30.3919 0.263474 39.7193 9.59086 39.2196 20.917Z" fill="white"/>
<path d="M20.4537 24.4147H18.9546C18.5104 24.4147 18.1218 24.026 18.1218 23.5819C18.1218 22.5825 18.2884 21.7497 18.6215 21.0835C18.9546 20.4172 19.6209 19.6955 20.6202 18.9182C21.6196 18.0854 22.2303 17.5857 22.3969 17.3081C22.6745 16.9194 22.841 16.4753 22.841 15.9756C22.841 15.3094 22.5634 14.7542 22.0637 14.2545C21.5085 13.7548 20.8423 13.5327 19.8985 13.5327C19.0101 13.5327 18.2884 13.7548 17.7332 14.2545C17.4 14.5321 17.1224 14.9207 16.9004 15.3649C16.6228 16.0311 15.9565 16.4198 15.2348 16.3642C14.1244 16.1977 13.4581 14.9762 14.0133 13.9769C14.2909 13.4217 14.7351 12.922 15.2348 12.4223C16.4007 11.423 17.8997 10.9233 19.7319 10.9233C21.6751 10.9233 23.2297 11.423 24.3956 12.4778C25.5615 13.4772 26.1167 14.6986 26.1167 16.0311C26.1167 16.8084 25.8946 17.4747 25.506 18.1409C25.1173 18.8071 24.1735 19.751 22.7855 20.8614C22.0637 21.4721 21.6196 21.9163 21.453 22.3049C21.342 22.5825 21.2309 22.9711 21.2309 23.5264C21.2309 24.0816 20.8978 24.4147 20.4537 24.4147ZM18.1773 27.3572V27.1907C18.1773 26.3024 18.8991 25.5806 19.7874 25.5806H19.954C20.8423 25.5806 21.5641 26.3024 21.5641 27.1907V27.3572C21.5641 28.2456 20.8423 28.9673 19.954 28.9673H19.7874C18.8991 28.9673 18.1773 28.2456 18.1773 27.3572Z" fill="#01D200" fill-opacity="0.9"/>
</svg>
