<svg width="320" height="320" viewBox="0 0 320 320" fill="none" xmlns="http://www.w3.org/2000/svg">
<path fill-rule="evenodd" clip-rule="evenodd" d="M174.513 75.12L62.7451 123.889L118.943 258.815L228.453 209.921L174.513 75.12Z" fill="#044C48"/>
<path fill-rule="evenodd" clip-rule="evenodd" d="M187.433 74.4945L163.599 66.4915L76.2925 105.007L130.358 235.306L233.846 190.789L187.433 74.87V74.4945Z" fill="white"/>
<path fill-rule="evenodd" clip-rule="evenodd" d="M239.867 192.915L191.071 70.7435L163.348 61.49L70.2715 102.13L127.849 240.808L239.867 192.915ZM183.921 78.4965L227.7 188.038L132.866 228.803L82.439 107.382L163.725 71.869L183.544 78.4965H183.921Z" fill="#044C48"/>
<path fill-rule="evenodd" clip-rule="evenodd" d="M157.202 66.4915L168.492 90.0005L192.953 79.1215L189.817 72.494L172.13 80.372L164.102 63.4905L157.453 66.742L157.202 66.4915Z" fill="#044C48"/>
<path fill-rule="evenodd" clip-rule="evenodd" d="M106.9 132.392L121.2 126.14L115.932 114.01L101.632 120.263L106.9 132.392Z" fill="#044C48"/>
<path fill-rule="evenodd" clip-rule="evenodd" d="M121.452 166.405L135.752 160.152L130.483 147.898L116.183 154.15L121.452 166.405Z" fill="#044C48"/>
<path fill-rule="evenodd" clip-rule="evenodd" d="M136.63 202.544L150.93 196.291L145.536 184.161L131.236 190.789L136.63 202.544Z" fill="#044C48"/>
<path fill-rule="evenodd" clip-rule="evenodd" d="M167.488 112.76C173.886 110.884 180.659 110.884 186.931 112.76C193.329 114.635 198.974 118.262 203.239 123.389C207.504 128.391 210.263 134.643 211.142 141.145C212.02 147.648 210.891 154.4 208.006 160.278C205.12 166.28 200.604 171.156 194.834 174.658C189.189 178.034 182.541 179.785 176.018 179.534C169.37 179.284 162.972 177.159 157.578 173.283C152.184 169.406 148.045 164.154 145.536 158.027C142.525 149.148 143.027 139.395 147.167 131.017C151.306 122.388 158.582 115.886 167.488 112.76Z" fill="#044C48"/>
<path fill-rule="evenodd" clip-rule="evenodd" d="M210.765 133.267L206.877 149.148L247.645 159.277L251.659 143.396L210.765 133.267Z" fill="#044C48"/>
<path fill-rule="evenodd" clip-rule="evenodd" d="M237.108 136.393L230.836 160.403L236.355 161.903L242.502 137.769L237.108 136.393Z" fill="#044C48"/>
<path fill-rule="evenodd" clip-rule="evenodd" d="M258.182 139.27L206.375 126.515L199.727 153.275L251.534 166.03L258.182 139.27ZM210.515 133.268L206.626 149.149L247.394 159.278L251.409 143.397L210.515 133.268Z" fill="#044C48"/>
<path fill-rule="evenodd" clip-rule="evenodd" d="M169.37 105.006C175.517 102.755 182.165 102.255 188.437 103.755C194.835 105.257 200.605 108.507 204.996 113.259C209.511 118.011 212.397 123.888 213.526 130.391C214.655 136.768 213.776 143.396 211.142 149.398C208.508 155.401 204.117 160.402 198.598 163.904C193.079 167.405 186.681 169.155 180.158 169.03C173.635 168.905 167.238 166.779 161.969 163.153C156.575 159.402 152.436 154.275 150.052 148.147C148.422 144.021 147.669 139.644 147.794 135.267C147.92 130.891 148.798 126.514 150.68 122.513C152.561 118.511 155.07 114.885 158.206 111.884C161.468 108.883 165.231 106.506 169.37 105.006Z" fill="#F0EDFF"/>
<path fill-rule="evenodd" clip-rule="evenodd" d="M167.739 100.505C160.965 103.381 155.07 108.258 151.056 114.385C146.916 120.512 144.784 127.765 144.784 135.143C144.784 142.521 147.042 149.773 151.181 155.901C155.321 162.028 161.216 166.905 167.99 169.656C174.889 172.532 182.416 173.283 189.691 171.907C196.967 170.532 203.741 167.03 209.009 161.778C214.278 156.526 217.916 149.898 219.421 142.771C220.926 135.518 220.299 128.015 217.539 121.137C215.658 116.511 212.898 112.384 209.26 108.758C205.748 105.256 201.483 102.38 196.967 100.505C192.326 98.629 187.434 97.629 182.416 97.629C177.273 97.629 172.255 98.629 167.739 100.505ZM181.789 107.132H182.541C188.186 107.132 193.831 108.758 198.472 111.884C203.239 115.01 206.877 119.512 209.009 124.764C211.267 130.016 212.02 135.893 210.891 141.645C209.887 147.272 207.128 152.524 202.988 156.651C198.974 160.778 193.706 163.654 188.061 164.779C182.416 165.904 176.52 165.404 171.126 163.153C165.732 160.903 161.216 157.151 157.955 152.399C154.693 147.523 153.063 141.895 153.063 136.143C153.063 130.391 154.819 124.764 158.08 119.887C161.342 115.135 165.983 111.384 171.377 109.258H172.13C175.266 108.133 178.653 107.507 182.04 107.382L181.789 107.132Z" fill="#044C48"/>
<path fill-rule="evenodd" clip-rule="evenodd" d="M173.509 115.51C177.398 114.009 181.788 113.634 185.928 114.51C190.068 115.385 193.831 117.511 196.716 120.512C199.601 123.513 201.608 127.39 202.361 131.516C203.113 135.643 202.612 139.894 200.981 143.771C199.35 147.647 196.465 150.898 192.953 153.149C189.44 155.4 185.301 156.651 181.036 156.526C176.771 156.401 172.631 155.15 169.244 152.774C165.732 150.398 163.098 147.022 161.467 143.146C159.334 137.893 159.46 132.016 161.718 126.764C163.976 121.762 168.241 117.636 173.509 115.51Z" fill="#01D200" fill-opacity="0.9"/>
<path fill-rule="evenodd" clip-rule="evenodd" d="M172.757 113.76C168.492 115.511 164.854 118.387 162.22 122.138C159.586 125.89 158.206 130.391 158.08 134.893C157.955 139.52 159.335 143.896 161.718 147.773C164.227 151.65 167.739 154.651 172.004 156.527C176.269 158.402 180.911 158.902 185.426 158.152C189.942 157.402 194.082 155.276 197.469 152.024C200.73 148.898 203.114 144.772 204.117 140.395C205.121 135.894 204.744 131.267 203.114 127.015C201.985 124.139 200.354 121.513 198.221 119.387C196.089 117.136 193.58 115.386 190.695 114.135C187.935 112.885 184.799 112.26 181.789 112.135C178.778 112.135 175.642 112.635 172.757 113.76ZM174.262 117.261C177.9 115.886 181.789 115.636 185.552 116.386C189.315 117.262 192.702 119.137 195.336 121.888C197.971 124.639 199.727 128.141 200.479 131.892C201.107 135.644 200.73 139.52 199.225 143.021C197.72 146.523 195.211 149.524 191.949 151.65C188.688 153.775 184.925 154.775 181.161 154.775C177.273 154.775 173.635 153.525 170.374 151.399C167.238 149.273 164.729 146.147 163.349 142.646C161.467 137.769 161.593 132.517 163.725 127.766C165.607 123.014 169.37 119.262 174.262 117.261Z" fill="#044C48"/>
</svg>
