<svg width="44" height="53" viewBox="0 0 44 53" fill="none" xmlns="http://www.w3.org/2000/svg">
<path d="M4.13031 0.0274214C2.11391 -0.220998 0.280825 1.24586 0.0287751 3.31603C-0.223275 5.38619 1.20883 7.29075 3.21377 7.55099L4.11886 7.66929C5.95194 7.90588 7.32676 9.5147 7.32676 11.4311V15.1455H3.67204C1.64418 15.1455 0.00586149 16.8372 0.00586149 18.931C0.00586149 21.0248 1.64418 22.7164 3.67204 22.7164H7.33822V41.6437C7.33822 47.9133 12.2646 53 18.3368 53H22.0029C34.1471 53 44 42.8266 44 30.2873V26.5019C44 20.2322 39.0736 15.1455 33.0015 15.1455H31.1684C29.1405 15.1455 27.5022 16.8372 27.5022 18.931C27.5022 21.0248 29.1405 22.7164 31.1684 22.7164H33.0015C35.0293 22.7164 36.6676 24.4081 36.6676 26.5019V30.2873C36.6676 38.6508 30.1029 45.4291 22.0029 45.4291H18.3368C16.3089 45.4291 14.6706 43.7375 14.6706 41.6437V22.7164H18.3368C20.3646 22.7164 22.0029 21.0248 22.0029 18.931C22.0029 16.8372 20.3646 15.1455 18.3368 15.1455H14.6706V11.4192C14.6706 5.69376 10.5347 0.855488 5.0354 0.145717L4.13031 0.0274214Z" fill="white"/>
</svg>
