<svg width="56" height="66" viewBox="0 0 56 66" fill="none" xmlns="http://www.w3.org/2000/svg">
<path d="M5.25676 0.0341474C2.69044 -0.275206 0.357413 1.55145 0.0366229 4.12939C-0.284168 6.70733 1.53851 9.07904 4.09025 9.40313L5.24218 9.55044C7.5752 9.84506 9.32497 11.8485 9.32497 14.2349V18.8605H4.67351C2.0926 18.8605 0.00746007 20.967 0.00746007 23.5744C0.00746007 26.1818 2.0926 28.2884 4.67351 28.2884H9.33955V51.8581C9.33955 59.6656 15.6095 66 23.3377 66H28.0037C43.46 66 56 53.3313 56 37.7163V33.0023C56 25.1949 49.73 18.8605 42.0019 18.8605H39.6688C37.0879 18.8605 35.0028 20.967 35.0028 23.5744C35.0028 26.1818 37.0879 28.2884 39.6688 28.2884H42.0019C44.5828 28.2884 46.6679 30.3949 46.6679 33.0023V37.7163C46.6679 48.1312 38.3128 56.5721 28.0037 56.5721H23.3377C20.7568 56.5721 18.6716 54.4655 18.6716 51.8581V28.2884H23.3377C25.9186 28.2884 28.0037 26.1818 28.0037 23.5744C28.0037 20.967 25.9186 18.8605 23.3377 18.8605H18.6716V14.2202C18.6716 7.09034 13.4078 1.06532 6.40869 0.181458L5.25676 0.0341474Z" fill="#01D200"/>
</svg>
