<svg width="68" height="68" viewBox="0 0 68 68" fill="none" xmlns="http://www.w3.org/2000/svg">
<path d="M57.4458 26.2802L57.3125 2.39923H2.44257V61.166L25.8172 61.3091" stroke="white" stroke-width="3" stroke-linecap="round" stroke-linejoin="round"/>
<path d="M13.9924 17.4081L46.7609 17.5611" stroke="white" stroke-width="3" stroke-linecap="round" stroke-linejoin="round"/>
<path d="M13.4223 32.5517L32.0863 32.3988" stroke="white" stroke-width="3" stroke-linecap="round" stroke-linejoin="round"/>
<path d="M13.564 46.7776H25.1043" stroke="white" stroke-width="3" stroke-linecap="round" stroke-linejoin="round"/>
<path d="M47.3616 66.2082C43.9747 65.4326 40.9628 63.5038 38.8415 60.7519C36.7203 58 35.6216 54.5963 35.7337 51.1236C35.6664 47.6544 36.812 44.2705 38.9727 41.5554C41.1334 38.8404 44.1738 36.9645 47.5696 36.2513C50.9505 35.7296 54.4057 36.4549 57.2915 38.2919C60.1773 40.129 62.2969 42.9526 63.2552 46.2365C64.3825 49.569 64.3587 53.1833 63.1876 56.5006C62.0166 59.8179 59.766 62.6462 56.7965 64.5325" stroke="white" stroke-width="3" stroke-linecap="round" stroke-linejoin="round"/>
<path d="M56.8048 64.528L56.8069 54.353" stroke="white" stroke-width="3" stroke-linecap="round" stroke-linejoin="round"/>
<path d="M56.8048 64.528L66.2822 64.503" stroke="white" stroke-width="3" stroke-linecap="round" stroke-linejoin="round"/>
</svg>
